solid Created by stlwrite.m 03-Dec-2012 14:47:32
facet normal 5.3812099E-001 -7.8828573E-001 -2.9838124E-001
outer loop
vertex 1.8897626E-003 -1.9564783E-002 -3.1001205E-003
vertex 5.1764436E-003 -1.6993331E-002 -3.9661503E-003
vertex 1.4735032E-003 -2.0927854E-002 -2.4976986E-004
endloop
endfacet
facet normal 4.4654173E-001 -7.9958022E-001 -4.0158692E-001
outer loop
vertex 5.1764436E-003 -1.6993331E-002 -3.9661503E-003
vertex 3.2193768E-003 -2.0321039E-002 4.8334288E-004
vertex 1.4735032E-003 -2.0927854E-002 -2.4976986E-004
endloop
endfacet
facet normal 2.4087028E-001 -9.4743460E-001 2.1059234E-001
outer loop
vertex 1.4735032E-003 -2.0927854E-002 -2.4976986E-004
vertex 3.2193768E-003 -2.0321039E-002 4.8334288E-004
vertex 2.6433908E-003 -1.9213686E-002 6.1240187E-003
endloop
endfacet
facet normal 3.1066591E-001 -6.3521600E-001 -7.0709801E-001
outer loop
vertex 5.1764436E-003 -1.6993331E-002 -3.9661503E-003
vertex 1.8897626E-003 -1.9564783E-002 -3.1001205E-003
vertex 2.0453634E-003 -1.7086513E-002 -5.2580913E-003
endloop
endfacet
facet normal -3.4209377E-001 -8.8978332E-001 3.0208871E-001
outer loop
vertex 1.4735032E-003 -2.0927854E-002 -2.4976986E-004
vertex 2.6433908E-003 -1.9213686E-002 6.1240187E-003
vertex -2.1973820E-003 -1.8119222E-002 3.8658674E-003
endloop
endfacet
facet normal -6.1318243E-001 -7.8990215E-001 -7.8669516E-003
outer loop
vertex -2.1973820E-003 -1.8119222E-002 3.8658674E-003
vertex -6.5743667E-003 -1.4674638E-002 -8.3654356E-004
vertex 1.4735032E-003 -2.0927854E-002 -2.4976986E-004
endloop
endfacet
facet normal 8.0510557E-001 -5.8702278E-001 -8.4907487E-002
outer loop
vertex 7.7540926E-003 -1.4804231E-002 5.3407801E-003
vertex 3.2193768E-003 -2.0321039E-002 4.8334288E-004
vertex 5.1764436E-003 -1.6993331E-002 -3.9661503E-003
endloop
endfacet
facet normal 6.5697592E-001 -7.2428375E-001 2.0927408E-001
outer loop
vertex 2.6433908E-003 -1.9213686E-002 6.1240187E-003
vertex 3.2193768E-003 -2.0321039E-002 4.8334288E-004
vertex 7.7540926E-003 -1.4804231E-002 5.3407801E-003
endloop
endfacet
facet normal -2.0583842E-002 -9.9238253E-001 1.2146252E-001
outer loop
vertex 2.0453634E-003 -1.7086513E-002 -5.2580913E-003
vertex 2.5073087E-003 -1.7400032E-002 -7.7413409E-003
vertex 5.1764436E-003 -1.6993331E-002 -3.9661503E-003
endloop
endfacet
facet normal -5.8691192E-001 -7.7678150E-001 -2.2835223E-001
outer loop
vertex 1.4735032E-003 -2.0927854E-002 -2.4976986E-004
vertex -6.5743667E-003 -1.4674638E-002 -8.3654356E-004
vertex -4.6421257E-003 -1.4709773E-002 -5.6832829E-003
endloop
endfacet
facet normal -4.1650623E-001 -7.9500645E-001 -4.4100702E-001
outer loop
vertex 1.8897626E-003 -1.9564783E-002 -3.1001205E-003
vertex 1.4735032E-003 -2.0927854E-002 -2.4976986E-004
vertex -4.6421257E-003 -1.4709773E-002 -5.6832829E-003
endloop
endfacet
facet normal 6.2219942E-001 -6.4142680E-001 4.4881999E-001
outer loop
vertex 2.6433908E-003 -1.9213686E-002 6.1240187E-003
vertex 7.7540926E-003 -1.4804231E-002 5.3407801E-003
vertex 3.4865423E-003 -1.2325981E-002 1.4798655E-002
endloop
endfacet
facet normal 6.1007917E-001 -7.0834929E-001 -3.5502771E-001
outer loop
vertex 2.5073087E-003 -1.7400032E-002 -7.7413409E-003
vertex 6.0977968E-003 -1.3484380E-002 -9.3839364E-003
vertex 5.1764436E-003 -1.6993331E-002 -3.9661503E-003
endloop
endfacet
facet normal -6.1027527E-001 -6.4595258E-001 4.5859504E-001
outer loop
vertex -5.3454642E-003 -1.4728093E-002 4.4531212E-003
vertex -2.1973820E-003 -1.8119222E-002 3.8658674E-003
vertex 8.4099115E-004 -1.2856992E-002 1.5321280E-002
endloop
endfacet
facet normal -1.7977381E-001 -6.3954759E-001 -7.4743575E-001
outer loop
vertex 2.0453634E-003 -1.7086513E-002 -5.2580913E-003
vertex 1.8897626E-003 -1.9564783E-002 -3.1001205E-003
vertex -4.6421257E-003 -1.4709773E-002 -5.6832829E-003
endloop
endfacet
facet normal -3.3750862E-001 -9.3966419E-001 5.5850863E-002
outer loop
vertex 2.5073087E-003 -1.7400032E-002 -7.7413409E-003
vertex 2.0453634E-003 -1.7086513E-002 -5.2580913E-003
vertex -4.6421257E-003 -1.4709773E-002 -5.6832829E-003
endloop
endfacet
facet normal 5.8826232E-001 -7.0533657E-001 -3.9553478E-001
outer loop
vertex 6.0977968E-003 -1.3484380E-002 -9.3839364E-003
vertex 2.5073087E-003 -1.7400032E-002 -7.7413409E-003
vertex 3.9796340E-003 -1.2964961E-002 -1.3460444E-002
endloop
endfacet
facet normal -7.0988721E-001 -6.8636769E-001 1.5798599E-001
outer loop
vertex -5.3454642E-003 -1.4728093E-002 4.4531212E-003
vertex -6.5743667E-003 -1.4674638E-002 -8.3654356E-004
vertex -2.1973820E-003 -1.8119222E-002 3.8658674E-003
endloop
endfacet
facet normal -4.1211501E-001 -8.5561085E-001 -3.1319529E-001
outer loop
vertex -4.6421257E-003 -1.4709773E-002 -5.6832829E-003
vertex -7.3766708E-003 -1.1452004E-002 -1.0984879E-002
vertex 2.5073087E-003 -1.7400032E-002 -7.7413409E-003
endloop
endfacet
facet normal 3.6687423E-002 -7.9424983E-001 -6.0648286E-001
outer loop
vertex 2.5073087E-003 -1.7400032E-002 -7.7413409E-003
vertex 2.1196848E-003 -1.1654883E-002 -1.5288635E-002
vertex 3.9796340E-003 -1.2964961E-002 -1.3460444E-002
endloop
endfacet
facet normal -3.9683673E-001 -7.8962785E-001 4.6798325E-001
outer loop
vertex -2.1973820E-003 -1.8119222E-002 3.8658674E-003
vertex 2.6433908E-003 -1.9213686E-002 6.1240187E-003
vertex 8.4099115E-004 -1.2856992E-002 1.5321280E-002
endloop
endfacet
facet normal 2.6903656E-001 -7.6684290E-001 5.8272755E-001
outer loop
vertex 3.4865423E-003 -1.2325981E-002 1.4798655E-002
vertex 8.4099115E-004 -1.2856992E-002 1.5321280E-002
vertex 2.6433908E-003 -1.9213686E-002 6.1240187E-003
endloop
endfacet
facet normal -2.7621740E-001 -7.7152246E-001 -5.7311171E-001
outer loop
vertex 2.5073087E-003 -1.7400032E-002 -7.7413409E-003
vertex -7.3766708E-003 -1.1452004E-002 -1.0984879E-002
vertex 2.1196848E-003 -1.1654883E-002 -1.5288635E-002
endloop
endfacet
facet normal -4.2345431E-001 -9.0150851E-001 8.9267403E-002
outer loop
vertex -8.7443041E-003 -1.3338541E-002 2.3632161E-003
vertex -6.5743667E-003 -1.4674638E-002 -8.3654356E-004
vertex -5.3454642E-003 -1.4728093E-002 4.4531212E-003
endloop
endfacet
facet normal -4.7094202E-001 -8.6064291E-001 1.9366844E-001
outer loop
vertex -7.9162866E-003 -1.3400394E-002 4.1018319E-003
vertex -8.7443041E-003 -1.3338541E-002 2.3632161E-003
vertex -5.3454642E-003 -1.4728093E-002 4.4531212E-003
endloop
endfacet
facet normal -4.9992651E-001 -8.2877374E-001 -2.5141132E-001
outer loop
vertex -7.3766708E-003 -1.1452004E-002 -1.0984879E-002
vertex -4.6421257E-003 -1.4709773E-002 -5.6832829E-003
vertex -8.5127177E-003 -1.2211289E-002 -6.2229005E-003
endloop
endfacet
facet normal 1.4719699E-001 -9.8350835E-001 -1.0509192E-001
outer loop
vertex -8.5523706E-003 -1.3454988E-002 3.7218230E-003
vertex -8.7443041E-003 -1.3338541E-002 2.3632161E-003
vertex -7.9162866E-003 -1.3400394E-002 4.1018319E-003
endloop
endfacet
facet normal -6.4004487E-001 -7.5938308E-001 -1.1696106E-001
outer loop
vertex -6.5743667E-003 -1.4674638E-002 -8.3654356E-004
vertex -8.7443041E-003 -1.3338541E-002 2.3632161E-003
vertex -8.5127177E-003 -1.2211289E-002 -6.2229005E-003
endloop
endfacet
facet normal -5.1195103E-001 -8.3587474E-001 -1.9803932E-001
outer loop
vertex -6.5743667E-003 -1.4674638E-002 -8.3654356E-004
vertex -8.5127177E-003 -1.2211289E-002 -6.2229005E-003
vertex -4.6421257E-003 -1.4709773E-002 -5.6832829E-003
endloop
endfacet
facet normal -2.8456587E-001 -7.5373632E-001 -5.9237128E-001
outer loop
vertex 2.1196848E-003 -1.1654883E-002 -1.5288635E-002
vertex -7.3766708E-003 -1.1452004E-002 -1.0984879E-002
vertex -2.3647065E-003 -1.1455425E-002 -1.3388195E-002
endloop
endfacet
facet normal -4.6119022E-001 -7.8214222E-001 4.1899541E-001
outer loop
vertex -5.3454642E-003 -1.4728093E-002 4.4531212E-003
vertex -2.9934947E-003 -1.0761747E-002 1.4445955E-002
vertex -7.9162866E-003 -1.3400394E-002 4.1018319E-003
endloop
endfacet
facet normal 9.2467028E-001 -3.7152797E-001 -8.3378173E-002
outer loop
vertex 9.4442330E-003 -6.4810342E-003 -3.4781820E-003
vertex 5.1764436E-003 -1.6993331E-002 -3.9661503E-003
vertex 6.0977968E-003 -1.3484380E-002 -9.3839364E-003
endloop
endfacet
facet normal -5.0261194E-001 3.4822762E-001 7.9127669E-001
outer loop
vertex -8.3634881E-003 -1.2431188E-002 3.3912426E-003
vertex -8.5523706E-003 -1.3454988E-002 3.7218230E-003
vertex -7.9162866E-003 -1.3400394E-002 4.1018319E-003
endloop
endfacet
facet normal -5.0720793E-001 -7.5342989E-001 4.1842988E-001
outer loop
vertex -5.3454642E-003 -1.4728093E-002 4.4531212E-003
vertex 8.4099115E-004 -1.2856992E-002 1.5321280E-002
vertex -2.9934947E-003 -1.0761747E-002 1.4445955E-002
endloop
endfacet
facet normal -3.1061608E-002 -9.9750739E-001 -6.3357234E-002
outer loop
vertex -7.3802285E-003 -1.1261938E-002 -1.3975570E-002
vertex -2.3647065E-003 -1.1455425E-002 -1.3388195E-002
vertex -7.3766708E-003 -1.1452004E-002 -1.0984879E-002
endloop
endfacet
facet normal -9.6131307E-001 2.2750202E-001 1.5530621E-001
outer loop
vertex -8.3634881E-003 -1.2431188E-002 3.3912426E-003
vertex -8.7443041E-003 -1.3338541E-002 2.3632161E-003
vertex -8.5523706E-003 -1.3454988E-002 3.7218230E-003
endloop
endfacet
facet normal 9.1606766E-001 -3.6410403E-001 -1.6807270E-001
outer loop
vertex 9.4442330E-003 -6.4810342E-003 -3.4781820E-003
vertex 7.7540926E-003 -1.4804231E-002 5.3407801E-003
vertex 5.1764436E-003 -1.6993331E-002 -3.9661503E-003
endloop
endfacet
facet normal -3.5626802E-001 -5.0217831E-001 -7.8796577E-001
outer loop
vertex 2.0579880E-004 -9.1518043E-003 -1.6018534E-002
vertex 2.1196848E-003 -1.1654883E-002 -1.5288635E-002
vertex -2.3647065E-003 -1.1455425E-002 -1.3388195E-002
endloop
endfacet
facet normal -9.6909624E-001 -5.6304920E-002 -2.4017122E-001
outer loop
vertex -8.5127177E-003 -1.2211289E-002 -6.2229005E-003
vertex -7.8979097E-003 -6.8568615E-003 -9.9589378E-003
vertex -7.3766708E-003 -1.1452004E-002 -1.0984879E-002
endloop
endfacet
facet normal -2.0258000E-001 -6.2999350E-001 -7.4971294E-001
outer loop
vertex -4.4034849E-004 -8.9438902E-003 -1.6018651E-002
vertex 2.0579880E-004 -9.1518043E-003 -1.6018534E-002
vertex -2.3647065E-003 -1.1455425E-002 -1.3388195E-002
endloop
endfacet
facet normal 4.9944479E-002 -7.4036080E-001 -6.7035168E-001
outer loop
vertex -2.3647065E-003 -1.1455425E-002 -1.3388195E-002
vertex -7.3802285E-003 -1.1261938E-002 -1.3975570E-002
vertex -4.4034849E-004 -8.9438902E-003 -1.6018651E-002
endloop
endfacet
facet normal 1.4740944E-001 -8.6463612E-001 -4.8028630E-001
outer loop
vertex -7.3802285E-003 -1.1261938E-002 -1.3975570E-002
vertex -5.6966147E-003 -9.0483697E-003 -1.7443815E-002
vertex -4.4034849E-004 -8.9438902E-003 -1.6018651E-002
endloop
endfacet
facet normal -4.0840334E-001 -5.2915561E-001 -7.4377489E-001
outer loop
vertex 4.9834629E-004 -8.7925810E-003 -1.6434738E-002
vertex 2.1196848E-003 -1.1654883E-002 -1.5288635E-002
vertex 2.0579880E-004 -9.1518043E-003 -1.6018534E-002
endloop
endfacet
facet normal 1.5510859E-001 4.8155367E-001 -8.6258179E-001
outer loop
vertex 2.0579880E-004 -9.1518043E-003 -1.6018534E-002
vertex -4.4034849E-004 -8.9438902E-003 -1.6018651E-002
vertex 2.9731254E-004 -8.9105973E-003 -1.5867420E-002
endloop
endfacet
facet normal -8.6307448E-001 4.5920792E-001 -2.1031049E-001
outer loop
vertex 2.9731254E-004 -8.9105973E-003 -1.5867420E-002
vertex 4.9834629E-004 -8.7925810E-003 -1.6434738E-002
vertex 2.0579880E-004 -9.1518043E-003 -1.6018534E-002
endloop
endfacet
facet normal 3.9786020E-001 -5.0448972E-001 -7.6628804E-001
outer loop
vertex 3.9796340E-003 -1.2964961E-002 -1.3460444E-002
vertex 2.1196848E-003 -1.1654883E-002 -1.5288635E-002
vertex 4.0545282E-003 -5.6827920E-003 -1.8215813E-002
endloop
endfacet
facet normal 8.0295227E-002 -9.8117185E-001 -1.7565462E-001
outer loop
vertex -4.4034849E-004 -8.9438902E-003 -1.6018651E-002
vertex 4.9834629E-004 -8.7925810E-003 -1.6434738E-002
vertex 2.9731254E-004 -8.9105973E-003 -1.5867420E-002
endloop
endfacet
facet normal -3.2246003E-001 -5.0359070E-001 -8.0150861E-001
outer loop
vertex 1.2220283E-003 -7.1652364E-003 -1.7748354E-002
vertex 2.1196848E-003 -1.1654883E-002 -1.5288635E-002
vertex 4.9834629E-004 -8.7925810E-003 -1.6434738E-002
endloop
endfacet
facet normal 2.6460445E-001 -5.1721984E-001 8.1392145E-001
outer loop
vertex 3.8245618E-003 -2.3103612E-003 2.1053357E-002
vertex 8.4099115E-004 -1.2856992E-002 1.5321280E-002
vertex 3.4865423E-003 -1.2325981E-002 1.4798655E-002
endloop
endfacet
facet normal 3.3146849E-001 -7.8854430E-001 -5.1800239E-001
outer loop
vertex -1.1084527E-003 -7.1135843E-003 -1.7453145E-002
vertex -5.6966147E-003 -9.0483697E-003 -1.7443815E-002
vertex -2.5219475E-003 -6.3537504E-003 -1.9514317E-002
endloop
endfacet
facet normal 2.2913839E-001 -5.4726201E-001 -8.0498439E-001
outer loop
vertex -4.4034849E-004 -8.9438902E-003 -1.6018651E-002
vertex -5.6966147E-003 -9.0483697E-003 -1.7443815E-002
vertex -1.1084527E-003 -7.1135843E-003 -1.7453145E-002
endloop
endfacet
facet normal -2.1789159E-001 -6.5007246E-001 -7.2796220E-001
outer loop
vertex -1.1084527E-003 -7.1135843E-003 -1.7453145E-002
vertex 4.9834629E-004 -8.7925810E-003 -1.6434738E-002
vertex -4.4034849E-004 -8.9438902E-003 -1.6018651E-002
endloop
endfacet
facet normal -1.1412613E-001 -5.9278572E-001 -7.9723299E-001
outer loop
vertex 1.2220283E-003 -7.1652364E-003 -1.7748354E-002
vertex 4.9834629E-004 -8.7925810E-003 -1.6434738E-002
vertex -1.1084527E-003 -7.1135843E-003 -1.7453145E-002
endloop
endfacet
facet normal 9.7053021E-002 -4.6321735E-001 -8.8091457E-001
outer loop
vertex 4.0545282E-003 -5.6827920E-003 -1.8215813E-002
vertex 2.1196848E-003 -1.1654883E-002 -1.5288635E-002
vertex 1.2220283E-003 -7.1652364E-003 -1.7748354E-002
endloop
endfacet
facet normal -8.4576046E-001 -2.5641924E-001 4.6790844E-001
outer loop
vertex -5.0915605E-003 -8.2033472E-003 1.2055662E-002
vertex -7.9162866E-003 -1.3400394E-002 4.1018319E-003
vertex -2.9934947E-003 -1.0761747E-002 1.4445955E-002
endloop
endfacet
facet normal -4.5378456E-001 -5.3172755E-001 7.1508431E-001
outer loop
vertex -2.9934947E-003 -1.0761747E-002 1.4445955E-002
vertex 8.4099115E-004 -1.2856992E-002 1.5321280E-002
vertex -1.7182428E-003 -2.4888790E-003 2.1406814E-002
endloop
endfacet
facet normal -9.9375725E-001 -1.1140761E-001 -5.8980929E-003
outer loop
vertex -7.8979097E-003 -6.8568615E-003 -9.9589378E-003
vertex -7.3802285E-003 -1.1261938E-002 -1.3975570E-002
vertex -7.3766708E-003 -1.1452004E-002 -1.0984879E-002
endloop
endfacet
facet normal 8.4228677E-001 -2.6205069E-001 -4.7104400E-001
outer loop
vertex 8.5914033E-003 -4.2175250E-003 -1.0080377E-002
vertex 6.0977968E-003 -1.3484380E-002 -9.3839364E-003
vertex 3.9796340E-003 -1.2964961E-002 -1.3460444E-002
endloop
endfacet
facet normal -9.2539322E-001 1.9017930E-001 -3.2784009E-001
outer loop
vertex -7.8979097E-003 -6.8568615E-003 -9.9589378E-003
vertex -5.6966147E-003 -9.0483697E-003 -1.7443815E-002
vertex -7.3802285E-003 -1.1261938E-002 -1.3975570E-002
endloop
endfacet
facet normal -6.9926339E-001 1.9103198E-001 -6.8886685E-001
outer loop
vertex -4.8885564E-003 -5.7511874E-003 -1.7349716E-002
vertex -3.1242953E-003 -5.4602139E-003 -1.9059913E-002
vertex -5.6966147E-003 -9.0483697E-003 -1.7443815E-002
endloop
endfacet
facet normal -5.6721431E-001 3.6052439E-002 -8.2278079E-001
outer loop
vertex -5.6966147E-003 -9.0483697E-003 -1.7443815E-002
vertex -3.1242953E-003 -5.4602139E-003 -1.9059913E-002
vertex -2.5219475E-003 -6.3537504E-003 -1.9514317E-002
endloop
endfacet
facet normal -8.8296331E-002 5.9250695E-001 -8.0071181E-001
outer loop
vertex 1.2220283E-003 -7.1652364E-003 -1.7748354E-002
vertex -1.1084527E-003 -7.1135843E-003 -1.7453145E-002
vertex 1.3139996E-003 -6.5683271E-003 -1.7316798E-002
endloop
endfacet
facet normal -5.6633139E-001 5.3840792E-001 -6.2400770E-001
outer loop
vertex 1.2220283E-003 -7.1652364E-003 -1.7748354E-002
vertex 1.3139996E-003 -6.5683271E-003 -1.7316798E-002
vertex 2.0034458E-003 -6.4363573E-003 -1.7828653E-002
endloop
endfacet
facet normal -2.3508415E-001 1.4616717E-001 -9.6092165E-001
outer loop
vertex 4.0545282E-003 -5.6827920E-003 -1.8215813E-002
vertex 1.2220283E-003 -7.1652364E-003 -1.7748354E-002
vertex 2.0034458E-003 -6.4363573E-003 -1.7828653E-002
endloop
endfacet
facet normal 5.4918659E-001 -4.6088120E-001 -6.9712454E-001
outer loop
vertex 6.5641324E-003 -2.7374940E-003 -1.8185964E-002
vertex 3.9796340E-003 -1.2964961E-002 -1.3460444E-002
vertex 4.0545282E-003 -5.6827920E-003 -1.8215813E-002
endloop
endfacet
facet normal 4.1446874E-001 -7.2416049E-001 -5.5118716E-001
outer loop
vertex 2.4990564E-005 -5.4487986E-003 -1.8788073E-002
vertex -1.1084527E-003 -7.1135843E-003 -1.7453145E-002
vertex -2.5219475E-003 -6.3537504E-003 -1.9514317E-002
endloop
endfacet
facet normal 8.8860226E-001 -3.5739008E-001 -2.8750363E-001
outer loop
vertex 8.5914033E-003 -4.2175250E-003 -1.0080377E-002
vertex 3.9796340E-003 -1.2964961E-002 -1.3460444E-002
vertex 6.5641324E-003 -2.7374940E-003 -1.8185964E-002
endloop
endfacet
facet normal -9.1041929E-001 -1.3283733E-001 3.9177933E-001
outer loop
vertex -9.8365257E-003 -3.5459779E-003 2.9808227E-003
vertex -8.3634881E-003 -1.2431188E-002 3.3912426E-003
vertex -7.9162866E-003 -1.3400394E-002 4.1018319E-003
endloop
endfacet
facet normal -8.8842934E-001 -1.2691265E-001 4.4111952E-001
outer loop
vertex -8.7443041E-003 -1.3338541E-002 2.3632161E-003
vertex -8.3634881E-003 -1.2431188E-002 3.3912426E-003
vertex -9.8365257E-003 -3.5459779E-003 2.9808227E-003
endloop
endfacet
facet normal 1.9469360E-001 -6.9086838E-001 -6.9627243E-001
outer loop
vertex 1.3139996E-003 -6.5683271E-003 -1.7316798E-002
vertex -1.1084527E-003 -7.1135843E-003 -1.7453145E-002
vertex 2.4990564E-005 -5.4487986E-003 -1.8788073E-002
endloop
endfacet
facet normal -1.9350316E-001 -8.5504681E-001 -4.8109406E-001
outer loop
vertex 1.3139996E-003 -6.5683271E-003 -1.7316798E-002
vertex 2.4990564E-005 -5.4487986E-003 -1.8788073E-002
vertex 2.0034458E-003 -6.4363573E-003 -1.7828653E-002
endloop
endfacet
facet normal 7.1177617E-002 -4.9178502E-001 8.6780256E-001
outer loop
vertex 3.8245618E-003 -2.3103612E-003 2.1053357E-002
vertex -1.7182428E-003 -2.4888790E-003 2.1406814E-002
vertex 8.4099115E-004 -1.2856992E-002 1.5321280E-002
endloop
endfacet
facet normal -5.8779788E-001 1.5100829E-002 -8.0886686E-001
outer loop
vertex -2.4104584E-003 -5.1729158E-003 -1.9573290E-002
vertex -2.5219475E-003 -6.3537504E-003 -1.9514317E-002
vertex -3.1242953E-003 -5.4602139E-003 -1.9059913E-002
endloop
endfacet
facet normal 2.6761380E-001 1.9901091E-002 -9.6332067E-001
outer loop
vertex 2.4990564E-005 -5.4487986E-003 -1.8788073E-002
vertex -2.5219475E-003 -6.3537504E-003 -1.9514317E-002
vertex -1.0863848E-003 -5.3053848E-003 -1.9093854E-002
endloop
endfacet
facet normal -4.0271944E-001 8.7567967E-001 -2.6646209E-001
outer loop
vertex -3.1242953E-003 -5.4602139E-003 -1.9059913E-002
vertex -4.8885564E-003 -5.7511874E-003 -1.7349716E-002
vertex -2.3909756E-003 -4.8903399E-003 -1.8295433E-002
endloop
endfacet
facet normal -1.8295453E-001 9.5896655E-001 -2.1658915E-001
outer loop
vertex -1.8427072E-003 -5.1750089E-003 -1.8681629E-002
vertex -1.5864896E-003 -4.9508535E-003 -1.7905591E-002
vertex -1.0658700E-003 -4.9397345E-003 -1.8296132E-002
endloop
endfacet
facet normal 2.3336372E-001 9.1094720E-001 -3.4017119E-001
outer loop
vertex -1.5864896E-003 -4.9508535E-003 -1.7905591E-002
vertex -1.8427072E-003 -5.1750089E-003 -1.8681629E-002
vertex -2.3909756E-003 -4.8903399E-003 -1.8295433E-002
endloop
endfacet
facet normal -1.4741407E-001 8.6361349E-001 4.8212105E-001
outer loop
vertex -1.7114343E-003 -4.8579667E-003 -1.9209402E-002
vertex -2.4283838E-003 -5.0141835E-003 -1.9148789E-002
vertex -1.8427072E-003 -5.1750089E-003 -1.8681629E-002
endloop
endfacet
facet normal -3.4353387E-001 6.6760796E-001 6.6051811E-001
outer loop
vertex -2.4283838E-003 -5.0141835E-003 -1.9148789E-002
vertex -3.1242953E-003 -5.4602139E-003 -1.9059913E-002
vertex -1.8427072E-003 -5.1750089E-003 -1.8681629E-002
endloop
endfacet
facet normal -2.8114326E-003 8.0303866E-001 -5.9592038E-001
outer loop
vertex -3.1242953E-003 -5.4602139E-003 -1.9059913E-002
vertex -2.3909756E-003 -4.8903399E-003 -1.8295433E-002
vertex -1.8427072E-003 -5.1750089E-003 -1.8681629E-002
endloop
endfacet
facet normal -5.4036111E-001 7.8039622E-001 -3.1462920E-001
outer loop
vertex -3.1242953E-003 -5.4602139E-003 -1.9059913E-002
vertex -2.4283838E-003 -5.0141835E-003 -1.9148789E-002
vertex -2.4104584E-003 -5.1729158E-003 -1.9573290E-002
endloop
endfacet
facet normal -6.9315031E-002 9.0754056E-001 -4.1420484E-001
outer loop
vertex -1.0863848E-003 -5.3053848E-003 -1.9093854E-002
vertex -1.8427072E-003 -5.1750089E-003 -1.8681629E-002
vertex -1.0658700E-003 -4.9397345E-003 -1.8296132E-002
endloop
endfacet
facet normal 4.2071739E-001 7.2766060E-001 5.4176289E-001
outer loop
vertex -1.0863848E-003 -5.3053848E-003 -1.9093854E-002
vertex -1.7114343E-003 -4.8579667E-003 -1.9209402E-002
vertex -1.8427072E-003 -5.1750089E-003 -1.8681629E-002
endloop
endfacet
facet normal 2.2693695E-001 8.8311154E-001 -4.1062590E-001
outer loop
vertex -1.0658700E-003 -4.9397345E-003 -1.8296132E-002
vertex 2.4990564E-005 -5.4487986E-003 -1.8788073E-002
vertex -1.0863848E-003 -5.3053848E-003 -1.9093854E-002
endloop
endfacet
facet normal 5.2230746E-001 -4.1684946E-001 -7.4392968E-001
outer loop
vertex -1.6295923E-003 -5.0960914E-003 -1.9592511E-002
vertex -1.0863848E-003 -5.3053848E-003 -1.9093854E-002
vertex -2.5219475E-003 -6.3537504E-003 -1.9514317E-002
endloop
endfacet
facet normal 5.8884007E-001 7.3682868E-001 -3.3219084E-001
outer loop
vertex -1.6295923E-003 -5.0960914E-003 -1.9592511E-002
vertex -1.7114343E-003 -4.8579667E-003 -1.9209402E-002
vertex -1.0863848E-003 -5.3053848E-003 -1.9093854E-002
endloop
endfacet
facet normal -1.9858912E-002 -4.7999557E-002 -9.9864990E-001
outer loop
vertex -2.4104584E-003 -5.1729158E-003 -1.9573290E-002
vertex -1.6295923E-003 -5.0960914E-003 -1.9592511E-002
vertex -2.5219475E-003 -6.3537504E-003 -1.9514317E-002
endloop
endfacet
facet normal 9.3924594E-001 -2.6878411E-001 -2.1347632E-001
outer loop
vertex 9.4442330E-003 -6.4810342E-003 -3.4781820E-003
vertex 6.0977968E-003 -1.3484380E-002 -9.3839364E-003
vertex 8.5914033E-003 -4.2175250E-003 -1.0080377E-002
endloop
endfacet
facet normal -9.5926887E-001 -7.9083234E-002 -2.7119952E-001
outer loop
vertex -7.8979097E-003 -6.8568615E-003 -9.9589378E-003
vertex -8.5127177E-003 -1.2211289E-002 -6.2229005E-003
vertex -1.0356572E-002 -3.3832667E-003 -2.2752429E-003
endloop
endfacet
facet normal 2.0178224E-001 -6.3760281E-001 7.4346936E-001
outer loop
vertex -2.4283838E-003 -5.0141835E-003 -1.9148789E-002
vertex -1.7114343E-003 -4.8579667E-003 -1.9209402E-002
vertex -2.1634216E-003 -4.7691790E-003 -1.9010585E-002
endloop
endfacet
facet normal -9.9291712E-001 -1.1878262E-001 2.4881032E-003
outer loop
vertex -2.4283838E-003 -5.0141835E-003 -1.9148789E-002
vertex -2.4904641E-003 -4.4973535E-003 -1.9249352E-002
vertex -2.4104584E-003 -5.1729158E-003 -1.9573290E-002
endloop
endfacet
facet normal -2.2557604E-001 3.9937785E-001 -8.8860160E-001
outer loop
vertex -1.4590450E-003 -4.6132267E-003 -1.9563261E-002
vertex -2.4104584E-003 -5.1729158E-003 -1.9573290E-002
vertex -2.4904641E-003 -4.4973535E-003 -1.9249352E-002
endloop
endfacet
facet normal -4.5058116E-001 -1.0932459E-001 -8.8601625E-001
outer loop
vertex 5.5266948E-005 -4.6462524E-003 -1.8902496E-002
vertex 2.4990564E-005 -5.4487986E-003 -1.8788073E-002
vertex -1.0658700E-003 -4.9397345E-003 -1.8296132E-002
endloop
endfacet
facet normal 8.6150932E-001 -3.2777306E-001 3.8777122E-001
outer loop
vertex -1.6295923E-003 -5.0960914E-003 -1.9592511E-002
vertex -1.4590450E-003 -4.6132267E-003 -1.9563261E-002
vertex -1.7114343E-003 -4.8579667E-003 -1.9209402E-002
endloop
endfacet
facet normal -3.1577665E-002 7.1541846E-002 -9.9693769E-001
outer loop
vertex -2.4104584E-003 -5.1729158E-003 -1.9573290E-002
vertex -1.4590450E-003 -4.6132267E-003 -1.9563261E-002
vertex -1.6295923E-003 -5.0960914E-003 -1.9592511E-002
endloop
endfacet
facet normal 3.7231070E-001 -1.4475034E-001 -9.1675079E-001
outer loop
vertex 2.0034458E-003 -6.4363573E-003 -1.7828653E-002
vertex 2.4990564E-005 -5.4487986E-003 -1.8788073E-002
vertex 5.5266948E-005 -4.6462524E-003 -1.8902496E-002
endloop
endfacet
facet normal -9.0448803E-001 -1.3004227E-001 4.0619004E-001
outer loop
vertex -9.8365257E-003 -3.5459779E-003 2.9808227E-003
vertex -7.9162866E-003 -1.3400394E-002 4.1018319E-003
vertex -5.0915605E-003 -8.2033472E-003 1.2055662E-002
endloop
endfacet
facet normal -9.8190600E-001 -1.8252577E-001 -5.0447546E-002
outer loop
vertex -8.7443041E-003 -1.3338541E-002 2.3632161E-003
vertex -1.0356572E-002 -3.3832667E-003 -2.2752429E-003
vertex -8.5127177E-003 -1.2211289E-002 -6.2229005E-003
endloop
endfacet
facet normal 9.8976570E-001 -6.8127379E-002 1.2538952E-001
outer loop
vertex 8.2764896E-003 2.3020541E-003 1.0511514E-002
vertex 7.7540926E-003 -1.4804231E-002 5.3407801E-003
vertex 9.4442330E-003 -6.4810342E-003 -3.4781820E-003
endloop
endfacet
facet normal -8.1544548E-002 -6.2037414E-001 -7.8005540E-001
outer loop
vertex -2.3909756E-003 -4.8903399E-003 -1.8295433E-002
vertex -4.8885564E-003 -5.7511874E-003 -1.7349716E-002
vertex -3.1191814E-003 -4.4008428E-003 -1.8608604E-002
endloop
endfacet
facet normal -4.4690081E-001 -8.4769619E-001 -2.8581592E-001
outer loop
vertex -3.1191814E-003 -4.4008428E-003 -1.8608604E-002
vertex -2.1634216E-003 -4.7691790E-003 -1.9010585E-002
vertex -2.3909756E-003 -4.8903399E-003 -1.8295433E-002
endloop
endfacet
facet normal -4.5524204E-001 -8.3024162E-001 -3.2164183E-001
outer loop
vertex -3.1191814E-003 -4.4008428E-003 -1.8608604E-002
vertex -2.4904641E-003 -4.4973535E-003 -1.9249352E-002
vertex -2.1634216E-003 -4.7691790E-003 -1.9010585E-002
endloop
endfacet
facet normal -5.3120929E-001 9.9894680E-002 8.4133095E-001
outer loop
vertex -2.4904641E-003 -4.4973535E-003 -1.9249352E-002
vertex -2.4283838E-003 -5.0141835E-003 -1.9148789E-002
vertex -2.1634216E-003 -4.7691790E-003 -1.9010585E-002
endloop
endfacet
facet normal -3.7209254E-002 -9.9732018E-001 -6.2990926E-002
outer loop
vertex -1.0658700E-003 -4.9397345E-003 -1.8296132E-002
vertex -2.3909756E-003 -4.8903399E-003 -1.8295433E-002
vertex -1.7114343E-003 -4.8579667E-003 -1.9209402E-002
endloop
endfacet
facet normal -3.7177820E-002 -9.9626577E-001 -7.7925384E-002
outer loop
vertex -1.5864896E-003 -4.9508535E-003 -1.7905591E-002
vertex -2.3909756E-003 -4.8903399E-003 -1.8295433E-002
vertex -1.0658700E-003 -4.9397345E-003 -1.8296132E-002
endloop
endfacet
facet normal -2.9102486E-001 -9.2371809E-001 -2.4909741E-001
outer loop
vertex -2.1634216E-003 -4.7691790E-003 -1.9010585E-002
vertex -1.7114343E-003 -4.8579667E-003 -1.9209402E-002
vertex -2.3909756E-003 -4.8903399E-003 -1.8295433E-002
endloop
endfacet
facet normal 1.4967892E-001 -9.6978825E-001 -1.9263181E-001
outer loop
vertex -1.7114343E-003 -4.8579667E-003 -1.9209402E-002
vertex 5.5266948E-005 -4.6462524E-003 -1.8902496E-002
vertex -1.0658700E-003 -4.9397345E-003 -1.8296132E-002
endloop
endfacet
facet normal 1.8470262E-001 -8.6500758E-001 -4.6652645E-001
outer loop
vertex -1.4590450E-003 -4.6132267E-003 -1.9563261E-002
vertex 5.5266948E-005 -4.6462524E-003 -1.8902496E-002
vertex -1.7114343E-003 -4.8579667E-003 -1.9209402E-002
endloop
endfacet
facet normal -9.8874307E-001 -1.1622329E-001 9.4230354E-002
outer loop
vertex -8.7443041E-003 -1.3338541E-002 2.3632161E-003
vertex -9.8365257E-003 -3.5459779E-003 2.9808227E-003
vertex -1.0356572E-002 -3.3832667E-003 -2.2752429E-003
endloop
endfacet
facet normal 8.3191657E-001 -3.1385407E-001 4.5761389E-001
outer loop
vertex 7.7540926E-003 -1.4804231E-002 5.3407801E-003
vertex 3.8245618E-003 -2.3103612E-003 2.1053357E-002
vertex 3.4865423E-003 -1.2325981E-002 1.4798655E-002
endloop
endfacet
facet normal 1.9585175E-002 -4.9855942E-001 -8.6663431E-001
outer loop
vertex 4.0545282E-003 -5.6827920E-003 -1.8215813E-002
vertex 2.0034458E-003 -6.4363573E-003 -1.7828653E-002
vertex 5.5266948E-005 -4.6462524E-003 -1.8902496E-002
endloop
endfacet
facet normal -8.4650093E-001 -2.6028261E-001 4.6442336E-001
outer loop
vertex -5.0915605E-003 -8.2033472E-003 1.2055662E-002
vertex -2.9934947E-003 -1.0761747E-002 1.4445955E-002
vertex -1.7182428E-003 -2.4888790E-003 2.1406814E-002
endloop
endfacet
facet normal -9.5906734E-001 -1.5586047E-001 -2.3642609E-001
outer loop
vertex -7.8979097E-003 -6.8568615E-003 -9.9589378E-003
vertex -1.0356572E-002 -3.3832667E-003 -2.2752429E-003
vertex -5.6966147E-003 -9.0483697E-003 -1.7443815E-002
endloop
endfacet
facet normal -6.6684049E-001 2.0615488E-001 -7.1611720E-001
outer loop
vertex -4.8885564E-003 -5.7511874E-003 -1.7349716E-002
vertex -5.1368531E-003 -1.9304605E-003 -1.6018599E-002
vertex -3.1191814E-003 -4.4008428E-003 -1.8608604E-002
endloop
endfacet
facet normal -3.0698013E-001 -2.3206027E-001 -9.2299032E-001
outer loop
vertex -5.9265218E-004 -1.5835965E-003 -2.0613134E-002
vertex -1.4590450E-003 -4.6132267E-003 -1.9563261E-002
vertex -2.4904641E-003 -4.4973535E-003 -1.9249352E-002
endloop
endfacet
facet normal 3.6002079E-001 -3.9572877E-001 -8.4485728E-001
outer loop
vertex 5.5266948E-005 -4.6462524E-003 -1.8902496E-002
vertex -1.4590450E-003 -4.6132267E-003 -1.9563261E-002
vertex -5.9265218E-004 -1.5835965E-003 -2.0613134E-002
endloop
endfacet
facet normal 4.1894621E-001 -3.4847456E-001 -8.3848053E-001
outer loop
vertex 4.0545282E-003 -5.6827920E-003 -1.8215813E-002
vertex 3.5354579E-003 -8.4022642E-004 -2.0487748E-002
vertex 6.5641324E-003 -2.7374940E-003 -1.8185964E-002
endloop
endfacet
facet normal -6.9864243E-001 1.2534922E-001 -7.0440489E-001
outer loop
vertex -5.9265218E-004 -1.5835965E-003 -2.0613134E-002
vertex -2.4904641E-003 -4.4973535E-003 -1.9249352E-002
vertex -3.1191814E-003 -4.4008428E-003 -1.8608604E-002
endloop
endfacet
facet normal 4.6704285E-002 -4.2016685E-001 -9.0624416E-001
outer loop
vertex 4.0545282E-003 -5.6827920E-003 -1.8215813E-002
vertex 5.5266948E-005 -4.6462524E-003 -1.8902496E-002
vertex 3.5354579E-003 -8.4022642E-004 -2.0487748E-002
endloop
endfacet
facet normal -7.0895076E-001 1.4465582E-001 -6.9026333E-001
outer loop
vertex -5.9265218E-004 -1.5835965E-003 -2.0613134E-002
vertex -3.1191814E-003 -4.4008428E-003 -1.8608604E-002
vertex -5.1368531E-003 -1.9304605E-003 -1.6018599E-002
endloop
endfacet
facet normal 9.9413133E-001 -3.2284427E-002 1.0325080E-001
outer loop
vertex 9.4442330E-003 -6.4810342E-003 -3.4781820E-003
vertex 9.8221479E-003 2.6102252E-003 -4.2742132E-003
vertex 8.2764896E-003 2.3020541E-003 1.0511514E-002
endloop
endfacet
facet normal 1.1069109E-001 -4.6668968E-001 -8.7746704E-001
outer loop
vertex -5.9265218E-004 -1.5835965E-003 -2.0613134E-002
vertex 3.5354579E-003 -8.4022642E-004 -2.0487748E-002
vertex 5.5266948E-005 -4.6462524E-003 -1.8902496E-002
endloop
endfacet
facet normal -9.5433503E-001 1.3997329E-002 -2.9841015E-001
outer loop
vertex -1.0356572E-002 -3.3832667E-003 -2.2752429E-003
vertex -7.9499222E-003 2.5552752E-005 -9.8119676E-003
vertex -5.6966147E-003 -9.0483697E-003 -1.7443815E-002
endloop
endfacet
facet normal -8.3402991E-001 2.1885398E-001 -5.0645536E-001
outer loop
vertex -7.9499222E-003 2.5552752E-005 -9.8119676E-003
vertex -4.8885564E-003 -5.7511874E-003 -1.7349716E-002
vertex -5.6966147E-003 -9.0483697E-003 -1.7443815E-002
endloop
endfacet
facet normal 9.3251634E-001 -1.3028455E-001 3.3680722E-001
outer loop
vertex 3.8245618E-003 -2.3103612E-003 2.1053357E-002
vertex 7.7540926E-003 -1.4804231E-002 5.3407801E-003
vertex 8.2764896E-003 2.3020541E-003 1.0511514E-002
endloop
endfacet
facet normal -6.4281261E-001 4.7648016E-001 -5.9979874E-001
outer loop
vertex 3.1341315E-004 7.6215353E-004 -1.9720713E-002
vertex -5.9265218E-004 -1.5835965E-003 -2.0613134E-002
vertex -5.1368531E-003 -1.9304605E-003 -1.6018599E-002
endloop
endfacet
facet normal 9.8780870E-001 -5.3851403E-002 -1.4606141E-001
outer loop
vertex 8.5914033E-003 -4.2175250E-003 -1.0080377E-002
vertex 9.8221479E-003 2.6102252E-003 -4.2742132E-003
vertex 9.4442330E-003 -6.4810342E-003 -3.4781820E-003
endloop
endfacet
facet normal -3.8074940E-002 3.6813435E-001 -9.2899269E-001
outer loop
vertex 3.5354579E-003 -8.4022642E-004 -2.0487748E-002
vertex -5.9265218E-004 -1.5835965E-003 -2.0613134E-002
vertex 3.1341315E-004 7.6215353E-004 -1.9720713E-002
endloop
endfacet
facet normal 5.3739274E-001 -1.4915156E-001 -8.3003783E-001
outer loop
vertex 3.5354579E-003 -8.4022642E-004 -2.0487748E-002
vertex 6.6666976E-003 3.2329254E-003 -1.9192399E-002
vertex 6.5641324E-003 -2.7374940E-003 -1.8185964E-002
endloop
endfacet
facet normal 9.6582550E-001 -5.9131805E-002 -2.5235760E-001
outer loop
vertex 8.5914033E-003 -4.2175250E-003 -1.0080377E-002
vertex 6.5641324E-003 -2.7374940E-003 -1.8185964E-002
vertex 6.6666976E-003 3.2329254E-003 -1.9192399E-002
endloop
endfacet
facet normal -9.9453747E-001 3.1891853E-002 9.9388838E-002
outer loop
vertex -9.8365257E-003 -3.5459779E-003 2.9808227E-003
vertex -9.8094875E-003 4.3965960E-003 7.0277072E-004
vertex -1.0356572E-002 -3.3832667E-003 -2.2752429E-003
endloop
endfacet
facet normal -8.9542419E-001 9.3462661E-002 -4.3529317E-001
outer loop
vertex -7.9499222E-003 2.5552752E-005 -9.8119676E-003
vertex -5.1368531E-003 -1.9304605E-003 -1.6018599E-002
vertex -4.8885564E-003 -5.7511874E-003 -1.7349716E-002
endloop
endfacet
facet normal -9.5239586E-001 8.1478313E-002 2.9377440E-001
outer loop
vertex -8.3646039E-004 4.9401401E-003 2.2205053E-002
vertex -5.0915605E-003 -8.2033472E-003 1.2055662E-002
vertex -1.7182428E-003 -2.4888790E-003 2.1406814E-002
endloop
endfacet
facet normal -9.5914382E-001 1.5742956E-001 -2.3507214E-001
outer loop
vertex -9.8094875E-003 4.3965960E-003 7.0277072E-004
vertex -7.9499222E-003 2.5552752E-005 -9.8119676E-003
vertex -1.0356572E-002 -3.3832667E-003 -2.2752429E-003
endloop
endfacet
facet normal -2.0592469E-001 5.3650629E-002 -9.7709602E-001
outer loop
vertex 3.1341315E-004 7.6215353E-004 -1.9720713E-002
vertex 2.5954118E-003 6.7571085E-003 -1.9872475E-002
vertex 3.5354579E-003 -8.4022642E-004 -2.0487748E-002
endloop
endfacet
facet normal -5.9576797E-001 1.1255141E-001 -7.9523128E-001
outer loop
vertex -3.2982654E-003 1.1042569E-002 -1.5559914E-002
vertex 3.1341315E-004 7.6215353E-004 -1.9720713E-002
vertex -5.1368531E-003 -1.9304605E-003 -1.6018599E-002
endloop
endfacet
facet normal 9.6971029E-001 3.1212384E-002 -2.4225570E-001
outer loop
vertex 8.0800373E-003 9.4692344E-003 -1.0363881E-002
vertex 9.8221479E-003 2.6102252E-003 -4.2742132E-003
vertex 8.5914033E-003 -4.2175250E-003 -1.0080377E-002
endloop
endfacet
facet normal 9.2932117E-001 -6.7012556E-002 3.6314151E-001
outer loop
vertex 8.2764896E-003 2.3020541E-003 1.0511514E-002
vertex 6.0939416E-003 5.3992909E-003 1.6668458E-002
vertex 3.8245618E-003 -2.3103612E-003 2.1053357E-002
endloop
endfacet
facet normal -8.4191978E-001 1.5141448E-001 5.1792353E-001
outer loop
vertex -9.8365257E-003 -3.5459779E-003 2.9808227E-003
vertex -5.0915605E-003 -8.2033472E-003 1.2055662E-002
vertex -9.8094875E-003 4.3965960E-003 7.0277072E-004
endloop
endfacet
facet normal 7.8905618E-001 1.1134744E-001 6.0414571E-001
outer loop
vertex 6.0939416E-003 5.3992909E-003 1.6668458E-002
vertex 3.1054751E-003 5.9785186E-003 2.0464847E-002
vertex 3.8245618E-003 -2.3103612E-003 2.1053357E-002
endloop
endfacet
facet normal 2.5515196E-001 1.0937310E-001 -9.6069515E-001
outer loop
vertex 2.5954118E-003 6.7571085E-003 -1.9872475E-002
vertex 6.6666976E-003 3.2329254E-003 -1.9192399E-002
vertex 3.5354579E-003 -8.4022642E-004 -2.0487748E-002
endloop
endfacet
facet normal -9.0735602E-001 2.6311949E-002 -4.1953865E-001
outer loop
vertex -7.9499222E-003 2.5552752E-005 -9.8119676E-003
vertex -7.5542079E-003 1.5955806E-002 -9.6687097E-003
vertex -5.1368531E-003 -1.9304605E-003 -1.6018599E-002
endloop
endfacet
facet normal -7.4954444E-001 1.2918295E-001 -6.4922637E-001
outer loop
vertex -7.5542079E-003 1.5955806E-002 -9.6687097E-003
vertex -3.2982654E-003 1.1042569E-002 -1.5559914E-002
vertex -5.1368531E-003 -1.9304605E-003 -1.6018599E-002
endloop
endfacet
facet normal 6.6891760E-002 -1.1444020E-001 9.9117559E-001
outer loop
vertex 3.8245618E-003 -2.3103612E-003 2.1053357E-002
vertex -8.3646039E-004 4.9401401E-003 2.2205053E-002
vertex -1.7182428E-003 -2.4888790E-003 2.1406814E-002
endloop
endfacet
facet normal -9.8692137E-001 -5.8836833E-002 -1.5008137E-001
outer loop
vertex -9.8094875E-003 4.3965960E-003 7.0277072E-004
vertex -9.7064814E-003 1.4526925E-002 -3.9460100E-003
vertex -7.9499222E-003 2.5552752E-005 -9.8119676E-003
endloop
endfacet
facet normal -4.9931359E-001 1.6855082E-001 -8.4986860E-001
outer loop
vertex 2.5954118E-003 6.7571085E-003 -1.9872475E-002
vertex 3.1341315E-004 7.6215353E-004 -1.9720713E-002
vertex -3.2982654E-003 1.1042569E-002 -1.5559914E-002
endloop
endfacet
facet normal 9.8299140E-001 3.2984372E-002 -1.8066467E-001
outer loop
vertex 8.0800373E-003 9.4692344E-003 -1.0363881E-002
vertex 8.5914033E-003 -4.2175250E-003 -1.0080377E-002
vertex 6.6666976E-003 3.2329254E-003 -1.9192399E-002
endloop
endfacet
facet normal 9.5372516E-001 -2.8569239E-001 9.3745202E-002
outer loop
vertex 9.8221479E-003 2.6102252E-003 -4.2742132E-003
vertex 9.7389808E-003 6.8286168E-003 9.4276173E-003
vertex 8.2764896E-003 2.3020541E-003 1.0511514E-002
endloop
endfacet
facet normal 3.9865479E-001 2.9283032E-001 -8.6909431E-001
outer loop
vertex 2.5954118E-003 6.7571085E-003 -1.9872475E-002
vertex 6.1978158E-003 7.0610112E-003 -1.8117651E-002
vertex 6.6666976E-003 3.2329254E-003 -1.9192399E-002
endloop
endfacet
facet normal -9.3782043E-001 2.6408406E-002 -3.4611487E-001
outer loop
vertex -9.7064814E-003 1.4526925E-002 -3.9460100E-003
vertex -7.5542079E-003 1.5955806E-002 -9.6687097E-003
vertex -7.9499222E-003 2.5552752E-005 -9.8119676E-003
endloop
endfacet
facet normal 9.3730766E-001 1.9575538E-001 -2.8832981E-001
outer loop
vertex 6.1978158E-003 7.0610112E-003 -1.8117651E-002
vertex 8.0800373E-003 9.4692344E-003 -1.0363881E-002
vertex 6.6666976E-003 3.2329254E-003 -1.9192399E-002
endloop
endfacet
facet normal 8.9153641E-001 -1.8954024E-001 4.1138464E-001
outer loop
vertex 9.7389808E-003 6.8286168E-003 9.4276173E-003
vertex 6.0939416E-003 5.3992909E-003 1.6668458E-002
vertex 8.2764896E-003 2.3020541E-003 1.0511514E-002
endloop
endfacet
facet normal 3.8012305E-001 9.8275572E-002 9.1970021E-001
outer loop
vertex 3.1054751E-003 5.9785186E-003 2.0464847E-002
vertex -8.3646039E-004 4.9401401E-003 2.2205053E-002
vertex 3.8245618E-003 -2.3103612E-003 2.1053357E-002
endloop
endfacet
facet normal 9.9806601E-001 6.0856547E-002 -1.2677903E-002
outer loop
vertex 9.5821368E-003 7.4484111E-003 5.5234188E-005
vertex 9.7389808E-003 6.8286168E-003 9.4276173E-003
vertex 9.8221479E-003 2.6102252E-003 -4.2742132E-003
endloop
endfacet
facet normal 9.8232538E-001 1.4951017E-001 -1.1262154E-001
outer loop
vertex 8.0800373E-003 9.4692344E-003 -1.0363881E-002
vertex 9.5821368E-003 7.4484111E-003 5.5234188E-005
vertex 9.8221479E-003 2.6102252E-003 -4.2742132E-003
endloop
endfacet
facet normal -9.2287916E-001 1.4108496E-003 3.8508710E-001
outer loop
vertex -8.3646039E-004 4.9401401E-003 2.2205053E-002
vertex -9.8094875E-003 4.3965960E-003 7.0277072E-004
vertex -5.0915605E-003 -8.2033472E-003 1.2055662E-002
endloop
endfacet
facet normal 3.2709369E-001 5.5193079E-001 -7.6706082E-001
outer loop
vertex 2.5954118E-003 6.7571085E-003 -1.9872475E-002
vertex 2.2134245E-003 1.2836848E-002 -1.5660750E-002
vertex 6.1978158E-003 7.0610112E-003 -1.8117651E-002
endloop
endfacet
facet normal -1.9402346E-001 5.5036658E-001 -8.1206626E-001
outer loop
vertex 2.2134245E-003 1.2836848E-002 -1.5660750E-002
vertex 2.5954118E-003 6.7571085E-003 -1.9872475E-002
vertex -3.2982654E-003 1.1042569E-002 -1.5559914E-002
endloop
endfacet
facet normal 8.3169711E-001 5.5476260E-001 2.2768170E-002
outer loop
vertex 7.1230466E-003 1.0742989E-002 9.6084578E-003
vertex 9.7389808E-003 6.8286168E-003 9.4276173E-003
vertex 9.5821368E-003 7.4484111E-003 5.5234188E-005
endloop
endfacet
facet normal -9.1971570E-001 -7.3419258E-002 3.8565856E-001
outer loop
vertex -9.8094875E-003 4.3965960E-003 7.0277072E-004
vertex -8.3646039E-004 4.9401401E-003 2.2205053E-002
vertex -4.7799987E-003 1.5745014E-002 1.4857498E-002
endloop
endfacet
facet normal 7.1442533E-001 5.0386137E-001 4.8551020E-001
outer loop
vertex 7.1230466E-003 1.0742989E-002 9.6084578E-003
vertex 3.1054751E-003 5.9785186E-003 2.0464847E-002
vertex 6.0939416E-003 5.3992909E-003 1.6668458E-002
endloop
endfacet
facet normal 8.0255640E-001 5.2856725E-001 2.7662224E-001
outer loop
vertex 9.5821368E-003 7.4484111E-003 5.5234188E-005
vertex 7.5035398E-003 1.1478662E-002 -1.6151562E-003
vertex 6.0151536E-003 1.1172592E-002 3.2878923E-003
endloop
endfacet
facet normal 6.8853509E-001 7.2165596E-001 -7.1638860E-002
outer loop
vertex 6.0151536E-003 1.1172592E-002 3.2878923E-003
vertex 7.1230466E-003 1.0742989E-002 9.6084578E-003
vertex 9.5821368E-003 7.4484111E-003 5.5234188E-005
endloop
endfacet
facet normal 8.9507997E-001 4.4383156E-001 -4.2958930E-002
outer loop
vertex 8.0800373E-003 9.4692344E-003 -1.0363881E-002
vertex 7.5035398E-003 1.1478662E-002 -1.6151562E-003
vertex 9.5821368E-003 7.4484111E-003 5.5234188E-005
endloop
endfacet
facet normal 7.4433339E-001 4.7578064E-001 4.6861550E-001
outer loop
vertex 9.7389808E-003 6.8286168E-003 9.4276173E-003
vertex 7.1230466E-003 1.0742989E-002 9.6084578E-003
vertex 6.0939416E-003 5.3992909E-003 1.6668458E-002
endloop
endfacet
facet normal 7.5694746E-001 5.4909772E-001 -3.5429117E-001
outer loop
vertex 4.0277839E-003 1.3268419E-002 -1.3133409E-002
vertex 8.0800373E-003 9.4692344E-003 -1.0363881E-002
vertex 6.1978158E-003 7.0610112E-003 -1.8117651E-002
endloop
endfacet
facet normal 2.3665237E-001 4.9886858E-001 8.3374196E-001
outer loop
vertex -8.3646039E-004 4.9401401E-003 2.2205053E-002
vertex 3.1054751E-003 5.9785186E-003 2.0464847E-002
vertex -8.5212605E-004 1.3896597E-002 1.6850414E-002
endloop
endfacet
facet normal 5.8087075E-001 6.2336951E-001 -5.2344972E-001
outer loop
vertex 4.0277839E-003 1.3268419E-002 -1.3133409E-002
vertex 6.1978158E-003 7.0610112E-003 -1.8117651E-002
vertex 2.2134245E-003 1.2836848E-002 -1.5660750E-002
endloop
endfacet
facet normal -1.9063865E-001 5.0348324E-001 8.4271079E-001
outer loop
vertex -8.3646039E-004 4.9401401E-003 2.2205053E-002
vertex -8.5212605E-004 1.3896597E-002 1.6850414E-002
vertex -4.7799987E-003 1.5745014E-002 1.4857498E-002
endloop
endfacet
facet normal 6.6775918E-001 5.5843246E-001 4.9218994E-001
outer loop
vertex 7.1230466E-003 1.0742989E-002 9.6084578E-003
vertex -8.5212605E-004 1.3896597E-002 1.6850414E-002
vertex 3.1054751E-003 5.9785186E-003 2.0464847E-002
endloop
endfacet
facet normal 7.1885800E-001 6.8635452E-001 -1.1027432E-001
outer loop
vertex 7.5035398E-003 1.1478662E-002 -1.6151562E-003
vertex 8.0800373E-003 9.4692344E-003 -1.0363881E-002
vertex 4.0277839E-003 1.3268419E-002 -1.3133409E-002
endloop
endfacet
facet normal 6.0333692E-002 6.3267070E-001 -7.7206713E-001
outer loop
vertex -5.4162359E-003 1.5717018E-002 -1.1894944E-002
vertex 1.4979822E-004 1.4348403E-002 -1.2581496E-002
vertex -3.2982654E-003 1.1042569E-002 -1.5559914E-002
endloop
endfacet
facet normal -2.6526883E-001 7.8325754E-001 -5.6226343E-001
outer loop
vertex 2.2134245E-003 1.2836848E-002 -1.5660750E-002
vertex -3.2982654E-003 1.1042569E-002 -1.5559914E-002
vertex 1.4979822E-004 1.4348403E-002 -1.2581496E-002
endloop
endfacet
facet normal -6.9036978E-001 2.2602457E-001 -6.8724263E-001
outer loop
vertex -5.4162359E-003 1.5717018E-002 -1.1894944E-002
vertex -3.2982654E-003 1.1042569E-002 -1.5559914E-002
vertex -7.5542079E-003 1.5955806E-002 -9.6687097E-003
endloop
endfacet
facet normal 3.1199542E-001 9.3764371E-001 1.5324223E-001
outer loop
vertex 7.5035398E-003 1.1478662E-002 -1.6151562E-003
vertex 9.0649741E-004 1.4838505E-002 -8.7417057E-003
vertex 6.0151536E-003 1.1172592E-002 3.2878923E-003
endloop
endfacet
facet normal 2.1355096E-001 9.2596459E-001 -3.1142485E-001
outer loop
vertex 4.0277839E-003 1.3268419E-002 -1.3133409E-002
vertex 2.2134245E-003 1.2836848E-002 -1.5660750E-002
vertex 1.4979822E-004 1.4348403E-002 -1.2581496E-002
endloop
endfacet
facet normal -9.9759197E-001 3.7049543E-002 5.8631707E-002
outer loop
vertex -9.3014631E-003 1.5218903E-002 2.5079278E-003
vertex -9.7064814E-003 1.4526925E-002 -3.9460100E-003
vertex -9.8094875E-003 4.3965960E-003 7.0277072E-004
endloop
endfacet
facet normal 4.5189652E-001 8.9206749E-001 2.2487638E-003
outer loop
vertex 9.0649741E-004 1.4838505E-002 -8.7417057E-003
vertex 7.5035398E-003 1.1478662E-002 -1.6151562E-003
vertex 4.0277839E-003 1.3268419E-002 -1.3133409E-002
endloop
endfacet
facet normal 2.4191882E-001 9.5535666E-001 -1.6961396E-001
outer loop
vertex 1.4979822E-004 1.4348403E-002 -1.2581496E-002
vertex 9.0649741E-004 1.4838505E-002 -8.7417057E-003
vertex 4.0277839E-003 1.3268419E-002 -1.3133409E-002
endloop
endfacet
facet normal -9.3877351E-001 -1.3356839E-002 3.4427583E-001
outer loop
vertex -4.7799987E-003 1.5745014E-002 1.4857498E-002
vertex -9.3014631E-003 1.5218903E-002 2.5079278E-003
vertex -9.8094875E-003 4.3965960E-003 7.0277072E-004
endloop
endfacet
facet normal 5.0988585E-001 8.5968536E-001 -3.0942816E-002
outer loop
vertex 6.0151536E-003 1.1172592E-002 3.2878923E-003
vertex 3.7606573E-004 1.4857415E-002 1.2740732E-002
vertex 7.1230466E-003 1.0742989E-002 9.6084578E-003
endloop
endfacet
facet normal 4.3721363E-001 8.7726152E-001 -1.9813243E-001
outer loop
vertex -3.3182788E-003 1.7283581E-002 -7.2384588E-003
vertex 9.0649741E-004 1.4838505E-002 -8.7417057E-003
vertex 1.4979822E-004 1.4348403E-002 -1.2581496E-002
endloop
endfacet
facet normal 5.1208818E-001 8.5780829E-001 4.3938957E-002
outer loop
vertex -3.3182788E-003 1.7283581E-002 -7.2384588E-003
vertex 6.0151536E-003 1.1172592E-002 3.2878923E-003
vertex 9.0649741E-004 1.4838505E-002 -8.7417057E-003
endloop
endfacet
facet normal 6.0053259E-001 7.1999621E-001 3.4780183E-001
outer loop
vertex 7.1230466E-003 1.0742989E-002 9.6084578E-003
vertex 3.7606573E-004 1.4857415E-002 1.2740732E-002
vertex -8.5212605E-004 1.3896597E-002 1.6850414E-002
endloop
endfacet
facet normal 5.4746819E-001 8.3682638E-001 3.8758258E-004
outer loop
vertex -3.3182788E-003 1.7283581E-002 -7.2384588E-003
vertex 3.7606573E-004 1.4857415E-002 1.2740732E-002
vertex 6.0151536E-003 1.1172592E-002 3.2878923E-003
endloop
endfacet
facet normal -7.1017075E-001 -2.6046067E-001 -6.5407783E-001
outer loop
vertex -7.5542079E-003 1.5955806E-002 -9.6687097E-003
vertex -6.8299375E-003 1.7301070E-002 -1.0990791E-002
vertex -5.4162359E-003 1.5717018E-002 -1.1894944E-002
endloop
endfacet
facet normal 1.7552094E-001 9.0647846E-001 -3.8404307E-001
outer loop
vertex -3.3182788E-003 1.7283581E-002 -7.2384588E-003
vertex 1.4979822E-004 1.4348403E-002 -1.2581496E-002
vertex -5.4162359E-003 1.5717018E-002 -1.1894944E-002
endloop
endfacet
facet normal 3.0557647E-001 9.5034403E-001 5.8900665E-002
outer loop
vertex -6.9695432E-003 1.7329583E-002 1.0962065E-002
vertex 3.7606573E-004 1.4857415E-002 1.2740732E-002
vertex -3.3182788E-003 1.7283581E-002 -7.2384588E-003
endloop
endfacet
facet normal -9.1290700E-001 -1.4815313E-001 -3.8033077E-001
outer loop
vertex -1.0501907E-002 1.8137705E-002 -3.4432856E-003
vertex -7.5542079E-003 1.5955806E-002 -9.6687097E-003
vertex -9.7064814E-003 1.4526925E-002 -3.9460100E-003
endloop
endfacet
facet normal 5.0715262E-001 7.2160196E-001 -4.7126088E-001
outer loop
vertex -6.8299375E-003 1.7301070E-002 -1.0990791E-002
vertex -3.3182788E-003 1.7283581E-002 -7.2384588E-003
vertex -5.4162359E-003 1.5717018E-002 -1.1894944E-002
endloop
endfacet
facet normal -8.9545763E-001 -3.4948617E-001 2.7570832E-001
outer loop
vertex -8.0243684E-003 1.6665684E-002 8.4896628E-003
vertex -1.0363186E-002 1.7192932E-002 1.5618849E-003
vertex -9.3014631E-003 1.5218903E-002 2.5079278E-003
endloop
endfacet
facet normal -8.9573103E-001 -4.3259734E-001 1.0259400E-001
outer loop
vertex -9.3014631E-003 1.5218903E-002 2.5079278E-003
vertex -1.0363186E-002 1.7192932E-002 1.5618849E-003
vertex -9.7064814E-003 1.4526925E-002 -3.9460100E-003
endloop
endfacet
facet normal -9.7688407E-001 -2.1336205E-001 -1.3199129E-002
outer loop
vertex -1.0501907E-002 1.8137705E-002 -3.4432856E-003
vertex -9.7064814E-003 1.4526925E-002 -3.9460100E-003
vertex -1.0363186E-002 1.7192932E-002 1.5618849E-003
endloop
endfacet
facet normal -8.9602512E-001 4.8686232E-002 -4.4132593E-001
outer loop
vertex -7.5542079E-003 1.5955806E-002 -9.6687097E-003
vertex -1.0501907E-002 1.8137705E-002 -3.4432856E-003
vertex -6.8299375E-003 1.7301070E-002 -1.0990791E-002
endloop
endfacet
facet normal -7.2473538E-001 -6.2412721E-001 2.9193124E-001
outer loop
vertex -7.3882188E-003 1.7124020E-002 1.1330659E-002
vertex -9.3014631E-003 1.5218903E-002 2.5079278E-003
vertex -4.7799987E-003 1.5745014E-002 1.4857498E-002
endloop
endfacet
facet normal -9.6374327E-001 -1.2467599E-001 2.3591317E-001
outer loop
vertex -8.0243684E-003 1.6665684E-002 8.4896628E-003
vertex -9.3014631E-003 1.5218903E-002 2.5079278E-003
vertex -7.3882188E-003 1.7124020E-002 1.1330659E-002
endloop
endfacet
facet normal 2.7909940E-001 9.1320688E-001 2.9691195E-001
outer loop
vertex -4.7799987E-003 1.5745014E-002 1.4857498E-002
vertex -8.5212605E-004 1.3896597E-002 1.6850414E-002
vertex 3.7606573E-004 1.4857415E-002 1.2740732E-002
endloop
endfacet
facet normal 2.5815341E-001 9.3684024E-001 2.3598137E-001
outer loop
vertex -6.9695432E-003 1.7329583E-002 1.0962065E-002
vertex -4.7799987E-003 1.5745014E-002 1.4857498E-002
vertex 3.7606573E-004 1.4857415E-002 1.2740732E-002
endloop
endfacet
facet normal -8.0587178E-002 9.0665585E-001 4.1410238E-001
outer loop
vertex -6.9695432E-003 1.7329583E-002 1.0962065E-002
vertex -7.3882188E-003 1.7124020E-002 1.1330659E-002
vertex -4.7799987E-003 1.5745014E-002 1.4857498E-002
endloop
endfacet
facet normal -8.8308483E-001 -3.9013791E-001 2.6067924E-001
outer loop
vertex -8.0243684E-003 1.6665684E-002 8.4896628E-003
vertex -7.3882188E-003 1.7124020E-002 1.1330659E-002
vertex -7.6248911E-003 1.7003300E-002 1.0348228E-002
endloop
endfacet
facet normal -9.7826958E-001 2.3467679E-002 2.0600484E-001
outer loop
vertex -1.0501907E-002 1.8137705E-002 -3.4432856E-003
vertex -8.0243684E-003 1.6665684E-002 8.4896628E-003
vertex -7.6248911E-003 1.7003300E-002 1.0348228E-002
endloop
endfacet
facet normal -3.3584327E-001 9.2383289E-001 1.8369018E-001
outer loop
vertex -1.0501907E-002 1.8137705E-002 -3.4432856E-003
vertex -1.0363186E-002 1.7192932E-002 1.5618849E-003
vertex -8.0243684E-003 1.6665684E-002 8.4896628E-003
endloop
endfacet
facet normal 1.3034157E-001 9.9118721E-001 2.3643013E-002
outer loop
vertex -1.0501907E-002 1.8137705E-002 -3.4432856E-003
vertex -6.9695432E-003 1.7329583E-002 1.0962065E-002
vertex -3.3182788E-003 1.7283581E-002 -7.2384588E-003
endloop
endfacet
facet normal 8.0738865E-002 9.9420863E-001 -7.0926622E-002
outer loop
vertex -3.3182788E-003 1.7283581E-002 -7.2384588E-003
vertex -6.8299375E-003 1.7301070E-002 -1.0990791E-002
vertex -1.0501907E-002 1.8137705E-002 -3.4432856E-003
endloop
endfacet
facet normal -3.8541725E-001 -9.0003556E-001 2.0344415E-001
outer loop
vertex -7.6542939E-003 1.7207632E-002 1.1196489E-002
vertex -7.6248911E-003 1.7003300E-002 1.0348228E-002
vertex -7.3882188E-003 1.7124020E-002 1.1330659E-002
endloop
endfacet
facet normal -2.4783559E-001 9.3987089E-001 -2.3498993E-001
outer loop
vertex -6.9695432E-003 1.7329583E-002 1.0962065E-002
vertex -7.6248911E-003 1.7003300E-002 1.0348228E-002
vertex -7.6542939E-003 1.7207632E-002 1.1196489E-002
endloop
endfacet
facet normal -5.7134348E-001 7.9959828E-001 1.8495670E-001
outer loop
vertex -1.0501907E-002 1.8137705E-002 -3.4432856E-003
vertex -7.6248911E-003 1.7003300E-002 1.0348228E-002
vertex -6.9695432E-003 1.7329583E-002 1.0962065E-002
endloop
endfacet
facet normal 1.8147560E-002 8.6430800E-001 5.0263542E-001
outer loop
vertex -6.9695432E-003 1.7329583E-002 1.0962065E-002
vertex -7.6542939E-003 1.7207632E-002 1.1196489E-002
vertex -7.3882188E-003 1.7124020E-002 1.1330659E-002
endloop
endfacet
endsolid Created by stlwrite.m 03-Dec-2012 14:47:32
